<svg width="130" height="131" viewBox="0 0 130 131" fill="none" xmlns="http://www.w3.org/2000/svg">
<g opacity="0.930588" clip-path="url(#clip0_30_7921)">
<path d="M64.821 0.596191C29.1083 0.596191 0.15625 29.5483 0.15625 65.2616C0.15625 100.977 29.1083 129.927 64.821 129.927C100.538 129.927 129.487 100.977 129.487 65.2616C129.487 29.5505 100.538 0.59928 64.8202 0.59928L64.821 0.596191ZM94.4758 93.8624C94.1999 94.3146 93.8374 94.7078 93.4093 95.0198C92.9812 95.3318 92.4957 95.5562 91.9808 95.6802C91.4658 95.8044 90.9314 95.8256 90.4081 95.743C89.8849 95.6602 89.3832 95.4752 88.9315 95.1983C73.7489 85.9241 54.6359 83.8238 32.1268 88.9666C31.0846 89.2037 29.9909 89.0171 29.086 88.4481C28.1812 87.879 27.5393 86.974 27.3015 85.9319C27.1831 85.4159 27.1675 84.8816 27.2558 84.3596C27.3441 83.8377 27.5345 83.3382 27.8161 82.8898C28.0977 82.4416 28.465 82.0532 28.8968 81.7471C29.3288 81.4409 29.8168 81.2229 30.333 81.1057C54.9656 75.4778 76.0948 77.901 93.14 88.318C95.0395 89.484 95.6418 91.9628 94.4758 93.8624ZM102.39 76.2547C100.931 78.6269 97.8272 79.3759 95.4565 77.9164C78.0747 67.2323 51.5789 64.1382 31.0196 70.3791C28.3532 71.1844 25.537 69.6817 24.7278 67.0199C24.3416 65.7403 24.4788 64.3597 25.109 63.1809C25.7393 62.0022 26.8112 61.1215 28.0899 60.732C51.5742 53.6061 80.7695 57.0578 100.731 69.3242C103.101 70.7836 103.85 73.8879 102.39 76.2555V76.2547ZM103.07 57.9196C82.229 45.5405 47.8438 44.4022 27.9455 50.4417C24.7502 51.4107 21.3712 49.6069 20.4028 46.4115C19.9372 44.8764 20.1004 43.2191 20.8564 41.8042C21.6124 40.3892 22.8994 39.3325 24.4344 38.8664C47.2762 31.932 85.2482 33.2718 109.243 47.5165C109.927 47.9211 110.525 48.4566 111.001 49.0924C111.478 49.7282 111.824 50.4517 112.021 51.2216C112.217 51.9914 112.259 52.7926 112.146 53.579C112.032 54.3654 111.765 55.1217 111.359 55.8046C109.66 58.6787 105.938 59.6261 103.074 57.9196H103.07Z" fill="#61D96C"/>
</g>
<defs>
<clipPath id="clip0_30_7921">
<rect width="129.625" height="129.625" fill="white" transform="translate(0.15625 0.596191)"/>
</clipPath>
</defs>
</svg>
